<?xml version="1.0" standalone="no"?>
<!DOCTYPE svg PUBLIC "-//W3C//DTD SVG 20010904//EN"
 "http://www.w3.org/TR/2001/REC-SVG-20010904/DTD/svg10.dtd">
<svg version="1.0" xmlns="http://www.w3.org/2000/svg"
 width="296.000000pt" height="363.000000pt" viewBox="0 0 296.000000 363.000000"
 preserveAspectRatio="xMidYMid meet">

<g transform="translate(0.000000,363.000000) scale(0.100000,-0.100000)"
fill="#000000" stroke="none">
<path d="M2050 2740 c-178 -21 -334 -130 -411 -285 -63 -129 -62 -119 -66
-710 -3 -359 0 -568 7 -623 27 -203 128 -353 295 -438 l60 -31 3 -133 c2 -107
6 -138 19 -152 14 -16 35 -18 175 -18 207 0 198 -8 198 173 l0 132 73 34 c128
60 228 186 274 346 15 53 18 125 21 618 3 628 0 665 -63 793 -105 214 -325
324 -585 294z m190 -64 c198 -35 342 -178 385 -381 12 -57 15 -172 15 -601 0
-329 -4 -553 -11 -590 -31 -176 -121 -299 -269 -371 -41 -19 -78 -41 -82 -47
-4 -6 -8 -71 -8 -143 l0 -133 -135 0 -135 0 0 133 c0 153 3 147 -95 193 -73
33 -172 129 -208 199 -62 124 -61 110 -65 705 -4 570 0 644 39 744 73 184 246
299 459 304 19 1 69 -5 110 -12z"/>
<path d="M2070 2449 c-51 -15 -96 -53 -127 -107 l-28 -47 -3 -585 c-3 -631 -3
-639 49 -710 82 -114 266 -113 349 2 55 75 55 77 55 683 0 606 0 608 -55 683
-51 71 -156 106 -240 81z m123 -63 c44 -18 94 -78 104 -123 10 -50 10 -1107 0
-1156 -11 -52 -69 -114 -120 -128 -55 -15 -101 -4 -143 33 -72 63 -69 38 -69
673 l0 571 25 49 c41 79 126 114 203 81z"/>
<path d="M627 2703 c-10 -12 -94 -377 -231 -1003 -119 -542 -216 -993 -216
-1001 0 -9 8 -23 18 -32 16 -14 44 -17 179 -17 140 0 162 2 175 18 9 9 27 82
43 167 15 82 29 153 32 157 2 5 92 8 199 8 147 0 196 -3 199 -13 3 -6 16 -76
29 -155 16 -95 30 -150 42 -163 15 -17 32 -19 176 -19 91 0 168 4 179 10 12 7
19 21 19 41 0 25 -408 1911 -426 1971 -14 45 -26 48 -218 48 -162 0 -185 -2
-199 -17z m366 -70 c3 -16 98 -450 211 -967 113 -516 206 -942 206 -947 0 -6
-58 -8 -137 -7 l-138 3 -26 147 c-35 189 -34 186 -72 193 -55 11 -445 1 -457
-11 -6 -6 -13 -24 -16 -40 -22 -131 -46 -262 -50 -276 -5 -16 -20 -18 -140
-18 -134 0 -134 0 -129 23 3 12 98 445 210 962 113 517 208 946 210 953 3 9
45 12 163 12 l160 0 5 -27z"/>
<path d="M792 2233 c-5 -10 -47 -226 -93 -480 -69 -386 -81 -464 -70 -477 11
-14 42 -16 197 -16 165 0 184 2 193 18 10 19 -153 937 -171 960 -15 18 -46 15
-56 -5z m103 -536 c36 -197 65 -362 65 -367 0 -6 -56 -10 -141 -10 -129 0
-140 1 -135 18 3 9 32 172 66 362 61 344 69 384 76 365 2 -5 33 -171 69 -368z"/>
</g>
</svg>
